<mxfile host="app.diagrams.net" modified="2022-04-11T14:38:25.784Z" agent="5.0 (Macintosh; Intel Mac OS X 10_15_7) AppleWebKit/537.36 (KHTML, like Gecko) Chrome/100.0.4896.75 Safari/537.36" etag="n_kwlDXjcDJMOurJYQ8X" version="17.4.0" type="github">
  <diagram id="k4FAGVq00alWS50musRP" name="Page-1">
    <mxGraphModel dx="1234" dy="700" grid="1" gridSize="10" guides="1" tooltips="1" connect="1" arrows="1" fold="1" page="1" pageScale="1" pageWidth="827" pageHeight="1169" math="0" shadow="0">
      <root>
        <mxCell id="0" />
        <mxCell id="1" parent="0" />
        <mxCell id="PuJHgVX1TuRWPJHxVxDd-4" value="" style="rounded=0;whiteSpace=wrap;html=1;" vertex="1" parent="1">
          <mxGeometry x="350" y="220" width="300" height="160" as="geometry" />
        </mxCell>
        <mxCell id="PuJHgVX1TuRWPJHxVxDd-1" value="" style="rounded=0;whiteSpace=wrap;html=1;" vertex="1" parent="1">
          <mxGeometry x="360" y="240" width="280" height="120" as="geometry" />
        </mxCell>
        <mxCell id="PuJHgVX1TuRWPJHxVxDd-3" value="Nomad reconciler" style="rounded=0;whiteSpace=wrap;html=1;" vertex="1" parent="1">
          <mxGeometry x="280" y="100" width="120" height="60" as="geometry" />
        </mxCell>
      </root>
    </mxGraphModel>
  </diagram>
</mxfile>
